PathFileType   4   (X/Y/Z)
DataRate	CameraRate	NumFrames	NumMarkers	Units	OrigDataRate	OrigDataStartFrame	OrigNumFrames
120.0	120.0	10	37	mm	120.0	89	142
Frame#	Time	midhip	hip_r	hip_l	knee_r	knee_l	ankle_r	ankle_l	midasis	asis_r	asis_l	psis_r	psis_l	epicondLat_r	epicondLat_l	epicondMed_r	epicondMed_l	malleolusLat_r	malleolusLat_l	malleolusMedv_r	malleolusMedv_l	neck	subclavicle_r	subclavicle_l	sternalnotch	xyphoidprocess	thighwand_r	thighwand_l	upperleg1_r	upperleg1_l	upperleg2_r	upperleg2_l	shankwand_r	shankwand_l	lowerleg1_r	lowerleg1_l	toe_r	toe_l
 	 	X1	Y1	Z1	X2	Y2	Z2	X3	Y3	Z3	X4	Y4	Z4	X5	Y5	Z5	X6	Y6	Z6	X7	Y7	Z7	X8	Y8	Z8	X9	Y9	Z9	X10	Y10	Z10	X11	Y11	Z11	X12	Y12	Z12	X13	Y13	Z13	X14	Y14	Z14	X15	Y15	Z15	X16	Y16	Z16	X17	Y17	Z17	X18	Y18	Z18	X19	Y19	Z19	X20	Y20	Z20	X21	Y21	Z21	X22	Y22	Z22	X23	Y23	Z23	X24	Y24	Z24	X25	Y25	Z25	X26	Y26	Z26	X27	Y27	Z27	X28	Y28	Z28	X29	Y29	Z29	X30	Y30	Z30	X31	Y31	Z31	X32	Y32	Z32	X33	Y33	Z33	X34	Y34	Z34	X35	Y35	Z35	X36	Y36	Z36	X37	Y37	Z37

	89	0.91667	1214.774	891.974	-220.647	1202.540	861.637	-155.054	1217.134	878.774	-303.790	1219.995	451.393	-123.200	1260.851	464.814	-280.983	927.761	176.568	-129.508	1276.754	70.886	-239.166	1295.851	955.551	-211.149	1284.232	941.907	-92.730	1307.470	969.195	-329.567	1106.281	993.911	-188.933	1118.786	1001.016	-273.603	1221.225	455.972	-64.892	1269.162	462.532	-338.339	1230.312	432.508	-173.079	1232.762	449.979	-236.198	914.199	190.184	-94.427	1260.881	66.493	-274.518	946.413	180.782	-155.448	1281.156	87.450	-215.001	1111.836	1423.791	-208.159	1235.383	1343.119	-155.494	1242.685	1344.564	-258.524	1222.130	1352.379	-205.271	1297.266	1185.459	-213.956	1254.311	553.948	11.422	1397.677	553.216	-278.807	1274.880	615.915	-53.625	1330.759	603.351	-327.473	1282.833	527.731	-70.579	1311.090	517.677	-323.974	1014.100	279.952	-4.402	1283.364	197.878	-372.860	990.732	256.946	-77.681	1265.795	165.509	-299.572	958.282	58.735	-122.639	1398.711	40.080	-261.387
	90	0.92500	1220.377	891.666	-220.992	1208.347	861.736	-155.943	1223.116	878.824	-304.667	1234.125	451.981	-123.418	1263.589	464.810	-281.548	941.020	179.254	-129.621	1277.181	70.798	-239.227	1301.541	955.815	-211.957	1289.778	942.205	-93.500	1313.304	969.425	-330.413	1111.913	993.694	-189.499	1124.512	1000.814	-274.199	1235.852	456.716	-65.135	1271.914	462.421	-338.897	1244.511	432.819	-173.297	1235.813	450.362	-237.118	927.592	192.886	-94.495	1261.202	66.454	-274.537	960.349	183.284	-155.287	1281.355	87.493	-214.992	1120.428	1423.439	-209.311	1241.760	1343.135	-155.744	1249.357	1344.755	-259.525	1228.532	1352.482	-206.024	1303.069	1185.307	-214.756	1267.906	555.036	10.998	1401.334	552.243	-279.353	1286.632	617.086	-54.144	1335.004	603.404	-328.081	1296.198	528.934	-71.292	1314.666	517.427	-324.690	1028.151	282.014	-4.460	1284.270	197.471	-373.131	1004.927	260.066	-77.807	1266.425	165.219	-299.873	973.561	61.804	-118.924	1398.735	40.015	-261.462
	91	0.93333	1225.836	891.279	-221.496	1214.104	861.879	-156.812	1229.022	878.865	-305.533	1248.054	452.781	-123.695	1266.220	464.790	-281.987	955.005	181.307	-129.880	1277.619	70.689	-239.250	1307.167	956.106	-212.794	1295.281	942.573	-94.307	1319.052	969.639	-331.280	1117.462	993.507	-190.064	1130.133	1000.630	-274.893	1250.386	457.689	-65.448	1274.673	462.290	-339.314	1257.492	433.729	-173.697	1238.124	451.085	-237.496	941.630	194.945	-94.736	1261.564	66.398	-274.532	975.058	184.527	-155.183	1281.612	87.469	-214.891	1125.500	1424.336	-210.467	1247.797	1342.873	-156.459	1255.895	1344.978	-260.671	1234.856	1352.602	-206.714	1309.273	1185.279	-216.168	1281.622	556.352	10.500	1404.819	551.311	-279.511	1298.516	618.500	-55.024	1339.116	603.377	-328.070	1309.231	530.628	-72.410	1317.721	517.289	-324.876	1042.416	283.770	-4.698	1285.240	197.085	-373.309	1019.369	261.966	-78.706	1266.697	165.052	-300.199	989.874	64.547	-115.062	1398.789	39.939	-261.502
	92	0.94167	1231.290	891.096	-222.107	1219.809	862.096	-157.644	1234.847	878.903	-306.373	1261.760	453.775	-124.020	1268.757	464.756	-282.300	969.672	182.686	-130.226	1278.032	70.561	-239.233	1312.739	956.434	-213.662	1300.758	943.044	-95.169	1324.719	969.824	-332.155	1122.956	993.372	-190.657	1135.665	1000.502	-275.672	1264.777	458.877	-65.821	1277.436	462.137	-339.587	1271.674	435.698	-174.370	1240.779	451.324	-236.908	956.294	196.295	-95.072	1261.936	66.329	-274.503	990.466	184.953	-155.277	1282.042	87.397	-214.779	1132.155	1424.744	-211.660	1253.534	1342.569	-157.237	1262.344	1345.078	-261.342	1241.098	1352.715	-207.361	1314.656	1184.936	-217.184	1295.371	557.886	9.944	1408.137	550.409	-279.308	1312.053	620.684	-55.761	1342.900	602.853	-327.481	1323.139	532.801	-73.171	1320.801	516.958	-324.339	1056.951	285.102	-5.062	1286.276	196.733	-373.387	1033.324	262.815	-79.637	1267.313	165.233	-300.267	1006.977	66.883	-111.219	1398.878	39.856	-261.503
	93	0.95000	1236.907	891.245	-222.922	1225.471	862.408	-158.419	1240.591	878.941	-307.171	1275.249	454.945	-124.385	1271.204	464.708	-282.498	984.944	183.381	-130.608	1278.374	70.423	-239.177	1318.265	956.807	-214.558	1306.224	943.641	-96.095	1330.306	969.974	-333.022	1128.423	993.299	-191.295	1141.122	1000.450	-276.508	1278.991	460.258	-66.247	1280.190	461.963	-339.732	1282.866	438.853	-174.399	1244.938	450.288	-236.677	971.526	196.919	-95.441	1262.280	66.254	-274.456	1006.587	184.917	-155.572	1282.480	87.277	-214.740	1138.539	1425.070	-213.044	1259.439	1342.643	-157.857	1268.899	1345.096	-261.673	1247.209	1352.823	-208.007	1320.611	1184.864	-217.249	1309.060	559.611	9.343	1411.305	549.530	-278.805	1327.858	623.257	-56.410	1346.297	602.358	-326.872	1336.561	534.857	-73.397	1324.836	516.646	-323.841	1071.771	285.974	-5.497	1287.372	196.420	-373.368	1048.033	262.998	-80.337	1268.290	165.441	-300.154	1024.722	68.782	-107.545	1398.998	39.771	-261.470
	94	0.95833	1242.431	891.404	-223.933	1231.094	862.819	-159.123	1246.247	878.976	-307.912	1288.561	456.274	-124.790	1273.573	464.647	-282.612	1000.759	183.392	-130.969	1278.602	70.284	-239.088	1323.749	957.225	-215.479	1311.692	944.370	-97.090	1335.806	970.081	-333.868	1133.865	993.294	-191.995	1146.506	1000.475	-277.373	1293.018	461.808	-66.723	1282.917	461.772	-339.782	1297.097	436.858	-172.228	1247.880	450.430	-236.634	987.261	196.832	-95.796	1262.555	66.183	-274.396	1022.846	184.163	-155.943	1282.722	87.204	-214.600	1144.132	1425.632	-214.230	1265.496	1342.942	-158.252	1275.277	1345.284	-261.948	1253.209	1352.955	-208.636	1326.956	1185.137	-217.229	1322.591	561.502	8.704	1414.344	548.667	-278.084	1336.704	624.654	-58.191	1349.807	602.283	-326.580	1348.965	537.041	-74.074	1328.325	516.550	-323.460	1086.842	286.438	-5.959	1288.512	196.144	-373.263	1064.645	262.596	-80.997	1269.390	165.864	-299.945	1043.052	70.246	-104.162	1399.141	39.685	-261.410
	95	0.96667	1247.842	891.524	-224.957	1236.699	863.317	-159.750	1251.836	879.005	-308.592	1301.740	457.745	-125.238	1275.867	464.580	-282.680	1017.088	182.726	-131.253	1278.688	70.160	-238.974	1329.203	957.686	-216.413	1317.175	945.220	-98.141	1341.232	970.152	-334.685	1139.283	993.356	-192.761	1151.822	1000.555	-278.242	1306.860	463.501	-67.248	1285.599	461.574	-339.779	1313.024	437.297	-172.414	1248.821	451.938	-236.818	1003.456	196.067	-96.094	1262.731	66.128	-274.331	1038.975	183.015	-156.090	1282.709	87.279	-214.381	1149.619	1426.178	-214.956	1271.298	1343.267	-158.790	1280.962	1345.419	-262.317	1259.175	1353.163	-209.202	1332.568	1185.311	-217.463	1335.890	563.530	8.036	1417.287	547.817	-277.240	1346.842	626.724	-59.200	1353.723	602.193	-326.246	1362.273	539.605	-75.113	1330.883	516.579	-323.133	1102.105	286.597	-6.412	1289.677	195.890	-373.094	1083.140	261.524	-81.454	1270.134	166.585	-299.590	1061.976	71.294	-101.162	1399.294	39.600	-261.337
	96	0.97500	1253.184	891.599	-226.064	1242.303	863.873	-160.300	1257.372	879.022	-309.204	1314.815	459.346	-125.733	1278.094	464.513	-282.741	1033.935	181.407	-131.418	1278.630	70.062	-238.845	1334.642	958.174	-217.346	1322.687	946.156	-99.222	1346.597	970.191	-335.470	1144.678	993.477	-193.579	1157.081	1000.654	-279.094	1320.518	465.317	-67.819	1288.216	461.379	-339.765	1329.081	438.230	-172.801	1250.489	452.542	-236.992	1020.096	194.675	-96.312	1262.802	66.099	-274.268	1055.817	181.607	-156.001	1282.794	87.168	-214.216	1155.110	1426.707	-215.475	1276.696	1343.362	-159.585	1286.463	1345.408	-263.000	1265.137	1353.469	-209.738	1337.540	1185.176	-218.030	1348.902	565.677	7.350	1420.171	546.974	-276.364	1357.534	628.859	-60.152	1357.487	601.668	-325.510	1375.624	542.262	-75.985	1333.844	516.592	-322.664	1117.507	286.554	-6.835	1290.848	195.646	-372.891	1096.899	261.108	-81.627	1270.511	166.706	-299.379	1081.527	71.938	-98.614	1399.443	39.518	-261.262
	97	0.98333	1258.587	891.881	-227.062	1247.914	864.456	-160.779	1262.879	879.029	-309.751	1327.803	461.067	-126.280	1280.265	464.453	-282.824	1051.311	179.481	-131.443	1278.450	69.994	-238.705	1340.076	958.670	-218.255	1328.226	947.130	-100.295	1351.925	970.209	-336.214	1150.045	993.646	-194.420	1162.301	1000.748	-279.907	1333.989	467.239	-68.436	1290.758	461.194	-339.774	1341.662	439.281	-172.343	1253.415	452.383	-236.024	1037.184	192.711	-96.437	1262.778	66.095	-274.205	1073.341	179.783	-156.025	1282.957	86.711	-214.056	1160.929	1427.129	-216.226	1282.358	1343.462	-160.247	1292.648	1345.778	-263.673	1271.069	1353.842	-210.325	1343.389	1185.392	-218.842	1361.588	567.921	6.657	1423.028	546.138	-275.534	1368.570	630.802	-61.494	1360.886	600.973	-324.430	1387.602	545.074	-76.740	1337.120	516.393	-321.610	1133.011	286.368	-7.213	1292.010	195.407	-372.680	1112.399	260.309	-81.784	1271.508	165.994	-299.305	1101.721	72.184	-96.557	1399.579	39.439	-261.196
	98	0.99167	1264.117	892.342	-227.901	1253.525	865.036	-161.201	1268.361	879.026	-310.242	1340.699	462.900	-126.884	1282.404	464.397	-282.943	1069.231	176.998	-131.325	1278.192	69.950	-238.557	1345.506	959.151	-219.126	1333.780	948.094	-101.333	1357.232	970.207	-336.918	1155.376	993.849	-195.249	1167.495	1000.827	-280.662	1347.264	469.254	-69.102	1293.230	461.019	-339.823	1352.874	440.992	-172.429	1255.748	452.911	-234.869	1054.735	190.220	-96.467	1262.690	66.112	-274.138	1091.094	177.779	-156.073	1282.942	86.315	-213.917	1167.322	1427.489	-217.193	1288.929	1344.256	-160.744	1298.907	1346.433	-263.704	1276.963	1354.235	-210.984	1350.177	1186.243	-219.011	1373.926	570.242	5.957	1425.885	545.307	-274.812	1379.834	632.928	-62.784	1364.427	600.675	-323.664	1399.118	547.754	-77.756	1339.881	515.820	-320.606	1148.616	286.043	-7.539	1293.151	195.171	-372.478	1129.505	259.176	-82.102	1273.077	165.387	-299.145	1122.541	72.026	-94.999	1399.689	39.366	-261.148
